<?xml version="1.0" encoding="UTF-8"?> <svg xmlns="http://www.w3.org/2000/svg" width="116" height="40" viewBox="0 0 116 40" fill="none"><g clip-path="url(#clip0_1749_1643)"><path d="M14.5166 8.7538C14.5166 8.42654 14.6791 8.2629 15.0042 8.2629H19.654C19.979 8.2629 20.1416 8.42654 20.1416 8.7538V26.1381C20.1514 26.2049 20.1456 26.2731 20.1246 26.3371C20.1036 26.4012 20.068 26.4595 20.0206 26.5072C19.9732 26.5549 19.9153 26.5908 19.8517 26.612C19.788 26.6331 19.7203 26.639 19.654 26.629H15.0009C14.9346 26.639 14.8669 26.6331 14.8033 26.612C14.7396 26.5908 14.6818 26.5549 14.6344 26.5072C14.587 26.4595 14.5513 26.4012 14.5303 26.3371C14.5093 26.2731 14.5035 26.2049 14.5134 26.1381V25.1989C13.2132 26.5079 11.3994 27.1625 9.01194 27.1625C6.3043 27.1625 4.11998 26.2641 2.46223 24.5133C0.807743 22.7166 0 20.3635 0 17.4181C0 14.4482 0.812619 12.087 2.46548 10.2936C4.11835 8.50017 6.34655 7.61328 9.05745 7.61328C11.4417 7.61328 13.2636 8.26781 14.5166 9.52615V8.7538ZM14.5166 19.7434V15.0226C13.8275 13.6808 12.1698 12.7415 10.3511 12.7415C7.60123 12.7415 5.74196 14.6151 5.74196 17.4231C5.74196 20.1934 7.60123 22.0244 10.3511 22.0244C12.251 22.0244 13.8681 21.0884 14.5166 19.7434Z" fill="white"></path><path d="M54.279 15.5485V26.1371C54.2889 26.2039 54.2831 26.2721 54.2621 26.3361C54.2411 26.4002 54.2054 26.4585 54.158 26.5062C54.1106 26.5539 54.0528 26.5898 53.9891 26.611C53.9254 26.6321 53.8577 26.638 53.7914 26.628H49.1839C48.8588 26.628 48.6963 26.4644 48.6963 26.1371V16.4468C48.6963 14.0038 47.6854 12.7814 45.623 12.7814C44.0059 12.7814 42.8341 13.436 42.0653 14.6976C42.102 14.9796 42.1151 15.2642 42.1044 15.5485V26.1371C42.1142 26.2039 42.1084 26.2721 42.0874 26.3361C42.0664 26.4002 42.0308 26.4585 41.9834 26.5062C41.936 26.5539 41.8781 26.5898 41.8145 26.611C41.7508 26.6321 41.6831 26.638 41.6168 26.628H36.9719C36.6468 26.628 36.4843 26.4644 36.4843 26.1371V16.4468C36.4843 14.0043 35.4734 12.7825 33.4516 12.7814C31.7939 12.7814 30.5814 13.436 29.8939 14.6976V26.1371C29.9038 26.2039 29.898 26.2721 29.877 26.3361C29.856 26.4002 29.8204 26.4585 29.773 26.5062C29.7256 26.5539 29.6677 26.5898 29.604 26.611C29.5404 26.6321 29.4727 26.638 29.4064 26.628H24.7598C24.6935 26.638 24.6258 26.6321 24.5622 26.611C24.4985 26.5898 24.4406 26.5539 24.3932 26.5062C24.3458 26.4585 24.3102 26.4002 24.2892 26.3361C24.2682 26.2721 24.2624 26.2039 24.2723 26.1371V8.7528C24.2723 8.42553 24.4348 8.2619 24.7598 8.2619H29.4096C29.7347 8.2619 29.8972 8.42553 29.8972 8.7528V9.40733C31.2722 8.22754 32.9689 7.61719 34.9907 7.61719C37.4594 7.61719 39.3187 8.51226 40.5718 10.2631C41.9873 8.67589 44.4951 7.61719 46.9606 7.61719C51.4901 7.61719 54.2741 10.6706 54.2741 15.5534" fill="white"></path><path d="M76.2108 13.2707C76.2337 13.3295 76.2432 13.3927 76.2386 13.4557C76.234 13.5187 76.2154 13.5799 76.1842 13.6347C76.153 13.6895 76.11 13.7365 76.0584 13.7724C76.0067 13.8082 75.9477 13.8319 75.8858 13.8418L71.4797 15.1508C71.197 15.231 70.9922 15.1083 70.8719 14.8236C70.347 13.5652 69.011 12.7487 67.3533 12.7487C64.9349 12.7405 63.3097 14.6141 63.3097 17.4172C63.3097 20.2202 64.9349 22.1461 67.3549 22.1461C69.0126 22.1461 70.3486 21.328 70.8735 20.0696C70.9954 19.7849 71.1986 19.6622 71.4814 19.7424L75.8468 21.0514C76.1718 21.1349 76.2921 21.3362 76.2108 21.6225C75.1187 25.0424 71.7625 27.1615 67.4345 27.1615C64.4831 27.1615 62.0994 26.2653 60.2835 24.473C58.4632 22.6829 57.5742 20.3184 57.5742 17.4286C57.5742 14.5389 58.4632 12.1776 60.2835 10.4268C62.1016 8.63662 64.4853 7.74046 67.4345 7.73828C71.6797 7.73828 75.117 9.8966 76.2108 13.2772" fill="white"></path><path d="M81.2354 10.2985C82.9744 8.50835 85.2796 7.61328 88.1508 7.61328C90.8595 7.61328 93.0428 8.42763 94.7005 10.0563C96.3583 11.6845 97.2083 13.8428 97.2083 16.4887C97.2123 17.1701 97.1579 17.8507 97.0457 18.5227C97.0424 18.5878 97.0258 18.6515 96.997 18.71C96.9682 18.7684 96.9278 18.8202 96.8783 18.8622C96.8287 18.9043 96.7712 18.9356 96.7091 18.9543C96.6471 18.973 96.5819 18.9787 96.5175 18.971H84.2275C84.4306 21.1293 86.2899 22.5546 88.8367 22.5546C90.8991 22.5153 92.4772 21.8608 93.649 20.5992C93.8521 20.3128 94.0927 20.3128 94.3365 20.5992L96.6411 23.1649C96.8442 23.4087 96.8832 23.6558 96.6817 23.8571C94.9427 25.8534 91.91 27.1559 88.5149 27.1559C85.5212 27.1559 83.1353 26.2576 81.3167 24.4674C79.498 22.6773 78.6074 20.3128 78.6074 17.3429C78.6074 14.4531 79.4964 12.0919 81.2354 10.3067M91.5882 15.1846C91.4663 13.4353 90.0913 12.2539 87.9477 12.2539C85.8462 12.2539 84.4306 13.3993 84.2681 15.1846H91.5882Z" fill="white"></path><path d="M114.688 8.26157C115.014 8.26157 115.176 8.4252 115.176 8.75247V12.4555C115.186 12.5223 115.181 12.5906 115.16 12.6549C115.139 12.7191 115.103 12.7775 115.056 12.8253C115.008 12.8732 114.95 12.909 114.887 12.9301C114.823 12.9511 114.755 12.9567 114.688 12.9464H109.431V26.1401C109.441 26.2068 109.435 26.275 109.414 26.3391C109.393 26.4032 109.357 26.4614 109.31 26.5092C109.262 26.5569 109.205 26.5928 109.141 26.6139C109.077 26.6351 109.01 26.6409 108.943 26.631H104.297C103.972 26.631 103.809 26.4673 103.809 26.1401V12.9431H99.4437C99.3774 12.9534 99.3095 12.9478 99.2457 12.9268C99.1819 12.9058 99.1238 12.8699 99.0764 12.8221C99.0289 12.7743 98.9932 12.7159 98.9724 12.6516C98.9515 12.5873 98.9459 12.519 98.9562 12.4522V8.75247C98.9562 8.4252 99.1187 8.26157 99.4437 8.26157H103.811V6.83633C103.811 2.31843 106.723 -0.00188046 111.21 -0.00188046C112.222 -0.0223806 113.231 0.112811 114.203 0.39902C114.324 0.41956 114.433 0.485653 114.508 0.584009C114.583 0.682365 114.619 0.80569 114.607 0.92919V4.47674C114.607 4.84492 114.445 4.96764 114.081 4.88419C113.578 4.76036 113.062 4.70532 112.545 4.72056C110.482 4.72056 109.431 5.6549 109.431 7.56776V8.25993L114.688 8.26157Z" fill="white"></path><path d="M73.2383 35.9258H61.834V40.0002H73.2383V35.9258Z" fill="#9EFA56"></path></g><defs><clipPath id="clip0_1749_1643"><rect width="115.172" height="40" fill="white"></rect></clipPath></defs></svg> 